<?xml version="1.0" encoding="UTF-8"?>
<svg id="Logo" xmlns="http://www.w3.org/2000/svg" version="1.1" viewBox="0 0 545.4 397.62">
  <!-- Generator: Adobe Illustrator 30.3.0, SVG Export Plug-In . SVG Version: 2.1.3 Build 182)  -->
  <defs>
    <style>
      .st0 {
        fill: #f6f6f6;
        stroke: #f6f6f6;
      }

      .st0, .st1 {
        stroke-miterlimit: 10;
      }

      .st1 {
        fill: #574998;
        stroke: #574998;
      }
    </style>
  </defs>
  <g id="Figuras">
    <path id="Alex" class="st0" d="M177.58,19.39c24.69-23.75,63.04-25.8,89.26-5.51,24.6,19.03,33.04,53.48,19.71,82.64-53.58,88.89-107.17,177.78-160.75,266.66-19.43,33.84-63.94,44.24-95.87,23.14-31.81-21.02-39.79-65.81-16.53-96.97C68.13,199.37,122.86,109.38,177.58,19.39Z"/>
    <path id="Fer" class="st0" d="M313.46,62.36v275.48c5.25,36.97,38.25,62.74,72.39,59.5,29.92-2.83,55.26-27.43,59.5-59.5V62.36C441.55,26.47,410.31-.02,375.93,1.76c-31.96,1.65-59.04,27.34-62.47,60.61Z"/>
    <rect class="st1" x="468.84" y="375.88" width="76.56" height="21.74"/>
  </g>
</svg>